# xmcd
#
# Track frame offsets:
#	210
#	14366
#	28236
#	41501
#	52663
#	65582
#	80812
#	93907
#	107205
#	121553
#	136638
#	157989
#	171017
#	184725
#	198652
#	214460
#	237619
#	251015
#	265143
#	278278
#	291264
#	305891
#	319839
#	332733
#
# Disc length: 4628 seconds
#
# Revision: 1
# Processed by: cddbd v1.5.2PL0 Copyright (c) Steve Scherf et al.
# Submitted via: EasyCDDAExtractor 7.1.0.1
#
DISCID=5c121218
DTITLE=Big Bill Broonzy - Trouble In Mind
DYEAR=2008
DGENRE=Blues
TTITLE0=Wandrin' man
TTITLE1=I Love My Whiskey
TTITLE2=You've Been Mistreatin'
TTITLE3=I Stay Blue
TTITLE4=Water Coast Blues
TTITLE5=Five Feet Seven
TTITLE6=I Wonder
TTITLE7=Keep your Hands Off Her
TTITLE8=Mindin' My Own Business
TTITLE9=John Henry
TTITLE10=In The Evening
TTITLE11=I Feel So Good
TTITLE12=Who's Sorry Now
TTITLE13=Trouble In Mind
TTITLE14=Keep Your Hands Off Her
TTITLE15=Mama Don't Allow
TTITLE16=When The Saints Go Marching in
TTITLE17=Bull Cow Blues
TTITLE18=Married Life
TTITLE19=Black Mare Blues
TTITLE20=WPA Blues
TTITLE21=Don't Do Me That Way
TTITLE22=Little Bug
TTITLE23=It Was just A Dream
EXTD=
EXTT0=
EXTT1=
EXTT2=
EXTT3=
EXTT4=
EXTT5=
EXTT6=
EXTT7=
EXTT8=
EXTT9=
EXTT10=
EXTT11=
EXTT12=
EXTT13=
EXTT14=
EXTT15=
EXTT16=
EXTT17=
EXTT18=
EXTT19=
EXTT20=
EXTT21=
EXTT22=
EXTT23=
PLAYORDER=
